#!OML:ASF F:\VICON\USERDATA\INSTALL\rory3\rory3.ASF
:FULLY-SPECIFIED
:DEGREES
83
root -11.8817 17.4535 -9.10263 -164.102 83.7312 -162.02
lowerback 12.354 -0.107528 -2.56256
upperback 0.269992 -0.387758 1.23617
thorax -6.62968 -0.0731943 2.82263
lowerneck -14.2806 -11.0214 -14.9604
upperneck 30.8787 -15.018 11.4718
head 15.3452 -6.53726 4.59193
rclavicle 1.96424e-014 -1.14301e-014
rhumerus -36.8831 -18.9564 -76.6615
rradius 32.4894
rwrist 9.14868
rhand -16.3203 7.03163
rfingers 7.12502
rthumb 9.89114 -22.716
lclavicle 1.96424e-014 -1.14301e-014
lhumerus -35.779 8.43063 72.3288
lradius 35.1612
lwrist -3.53776
lhand -16.636 26.3656
lfingers 7.12502
lthumb 9.58657 56.1275
rfemur 0.161114 5.16645 7.91234
rtibia 23.4289
rfoot -13.4403 0.950312
rtoes -16.7917
lfemur -5.1118 -14.3174 -1.46953
ltibia 24.5818
lfoot -8.56419 -2.05508
ltoes -24.6733
84
root -11.8912 17.4691 -8.96307 -162.106 83.6762 -159.966
lowerback 12.4761 -0.12094 -2.15533
upperback 0.310102 -0.350362 1.20082
thorax -6.66039 -0.0676252 2.54862
lowerneck -14.2646 -11.0208 -14.8764
upperneck 30.9024 -15.0377 11.4563
head 15.3454 -6.53729 4.56911
rclavicle 8.44214e-015 -9.93923e-016
rhumerus -36.7745 -18.6199 -77.017
rradius 32.426
rwrist 9.00216
rhand -16.6031 6.72667
rfingers 7.12502
rthumb 9.61831 -23.0338
lclavicle 8.44214e-015 -9.93923e-016
lhumerus -35.8286 8.80191 72.1349
lradius 35.281
lwrist -3.58528
lhand -16.6216 26.4046
lfingers 7.12502
lthumb 9.60043 56.1659
rfemur 0.0915988 4.6131 8.82061
rtibia 23.5108
rfoot -13.8872 0.128232
rtoes -17.5982
lfemur -5.1578 -14.4393 -0.942249
ltibia 24.6146
lfoot -7.68192 -1.50112
ltoes -24.2182
85
root -11.8945 17.4906 -8.82042 -162.207 83.8182 -159.842
lowerback 12.7087 -0.054075 -2.15909
upperback 0.41525 -0.266209 1.14997
thorax -6.68428 -0.0265258 2.48325
lowerneck -14.2406 -11.0246 -14.9075
upperneck 30.9322 -15.0533 11.5029
head 15.366 -6.54146 4.59354
rclavicle 9.13788e-015 2.18663e-015
rhumerus -36.6423 -18.1456 -77.3252
rradius 32.3668
rwrist 9.00993
rhand -16.8935 6.32121
rfingers 7.12502
rthumb 9.33806 -23.452
lclavicle 9.13788e-015 2.18663e-015
lhumerus -35.8561 9.13311 71.9821
lradius 35.3706
lwrist -3.65022
lhand -16.4753 26.2087
lfingers 7.12502
lthumb 9.74162 55.9634
rfemur 0.211297 4.14124 9.42415
rtibia 23.5597
rfoot -14.2229 -0.549895
rtoes -18.3995
lfemur -4.87428 -14.7587 -0.82762
ltibia 24.6108
lfoot -6.75696 -0.682144
ltoes -22.1336
86
root -11.8929 17.5094 -8.68088 -162.543 84.016 -159.882
lowerback 12.8988 -0.0136569 -2.25947
upperback 0.578253 -0.227565 1.12065
thorax -6.61933 -0.00571256 2.50244
lowerneck -14.2032 -10.9948 -14.944
upperneck 30.8545 -15.021 11.5729
head 15.3266 -6.52753 4.63508
rclavicle 1.33931e-014 -2.38542e-015
rhumerus -36.3765 -17.7227 -77.609
rradius 32.1196
rwrist 9.19546
rhand -17.0453 6.23367
rfingers 7.12502
rthumb 9.19163 -23.546
lclavicle 1.33931e-014 -2.38542e-015
lhumerus -35.9123 9.46075 71.9124
lradius 35.4823
lwrist -3.55253
lhand -16.4806 26.0879
lfingers 7.12502
lthumb 9.73651 55.8429
rfemur 0.419037 3.54919 9.89192
rtibia 23.5389
rfoot -14.3982 -0.641914
rtoes -16.3376
lfemur -4.4428 -15.2594 -0.887157
ltibia 24.5865
lfoot -5.78758 0.570459
ltoes -19.7465
87
root -11.8979 17.5332 -8.54584 -159.737 84.1507 -157.132
lowerback 12.7564 0.0149083 -1.92441
upperback 0.653739 -0.136874 1.11756
thorax -6.46524 0.0260824 2.29067
lowerneck -14.2217 -11.0049 -14.9627
upperneck 30.8224 -15.0504 11.6414
head 15.3311 -6.53428 4.6592
rclavicle -1.4238e-014 1.56046e-014
rhumerus -36.1124 -17.5415 -77.8285
rradius 31.9029
rwrist 9.29656
rhand -16.9099 6.32506
rfingers 7.12502
rthumb 9.32227 -23.4488
lclavicle -1.4238e-014 1.56046e-014
lhumerus -35.8655 9.54606 71.9661
lradius 35.5398
lwrist -3.15875
lhand -16.639 26.2173
lfingers 7.12502
lthumb 9.58368 55.9793
rfemur 0.224162 3.13662 10.6432
rtibia 23.4889
rfoot -14.5137 -0.463105
rtoes -13.6228
lfemur -4.42529 -15.3809 -0.526805
ltibia 24.5662
lfoot -4.78124 1.69343
ltoes -16.3484
